<?xml version="1.0" encoding="utf-8"?>
<!-- Generator: Adobe Illustrator 16.0.0, SVG Export Plug-In . SVG Version: 6.00 Build 0)  -->
<!DOCTYPE svg PUBLIC "-//W3C//DTD SVG 1.1//EN" "http://www.w3.org/Graphics/SVG/1.1/DTD/svg11.dtd">
<svg version="1.1" id="Layer_1" xmlns="http://www.w3.org/2000/svg" xmlns:xlink="http://www.w3.org/1999/xlink" x="0px" y="0px"
	 width="50px" height="20px" viewBox="0 0 50 20" enable-background="new 0 0 50 20" xml:space="preserve">
<path fill-rule="evenodd" clip-rule="evenodd" fill="#FFFFFF" d="M6.695,1.246C3.492,5.324,0.421,10.384,0.39,14.165
	c-0.012,1.423,0.407,2.665,1.411,3.606c1.446,1.354,3.039,1.831,4.624,1.834c2.316,0.004,4.616-1.01,6.417-1.791
	c3.033-1.316,36.561-17.106,36.561-17.106c0.323-0.175,0.262-0.395-0.142-0.284c-0.163,0.044-36.5,10.724-36.5,10.724
	c-0.701,0.213-1.418,0.324-2.115,0.328C7.854,11.493,5.369,9.813,5.389,6.27C5.397,4.883,5.789,3.213,6.695,1.246L6.695,1.246z"/>
</svg>
